<svg width="342" height="343" viewBox="0 0 342 343" fill="none" xmlns="http://www.w3.org/2000/svg">
<g clip-path="url(#clip0_9_2)">
<g filter="url(#filter0_f_9_2)">
<path d="M305.156 143.144C305.738 172.067 299.867 234.678 271.729 253.748C243.59 272.819 168.957 288.516 135.157 293.981" stroke="#BA38F2"/>
</g>
<g filter="url(#filter1_f_9_2)">
<path d="M195.349 46.5995C196.111 75.5112 190.631 138.153 162.605 157.421C134.579 176.69 60.0245 192.92 26.251 198.627" stroke="#37BB8A"/>
</g>
<path d="M303.689 135.951C304.4 165.659 298.539 229.948 269.41 249.434C240.28 268.921 162.889 284.778 127.835 290.27" stroke="#B73BF0"/>
<path d="M300.893 133.515C301.609 163.223 295.758 227.511 266.631 247.004C237.505 266.496 160.116 282.366 125.062 287.864" stroke="#B43EED"/>
<path d="M297.804 130.823C298.524 160.531 292.684 224.82 263.561 244.318C234.437 263.815 157.051 279.7 121.997 285.205" stroke="#B042EA"/>
<path d="M294.42 127.874C295.146 157.582 289.318 221.872 260.198 241.376C231.078 260.88 153.693 276.781 118.642 282.293" stroke="#AD45E7"/>
<path d="M290.742 124.67C291.474 154.377 285.659 218.669 256.543 238.178C227.426 257.689 150.044 273.607 114.993 279.128" stroke="#A84AE4"/>
<path d="M286.77 121.209C287.509 150.916 281.708 215.208 252.596 234.726C223.483 254.243 146.104 270.18 111.054 275.71" stroke="#A44EE0"/>
<path d="M282.504 117.492C283.25 147.198 277.464 211.492 248.356 231.017C219.248 250.542 141.873 266.5 106.824 272.038" stroke="#9F53DC"/>
<path d="M277.944 113.518C278.697 143.225 272.928 207.519 243.825 227.053C214.721 246.586 137.349 262.566 102.301 268.114" stroke="#9A58D8"/>
<path d="M273.09 109.289C273.851 138.995 268.099 203.291 239.001 222.833C209.902 242.375 132.533 258.378 97.4867 263.937" stroke="#945ED4"/>
<path d="M267.942 104.803C268.711 134.509 262.977 198.806 233.884 218.357C204.791 237.909 127.427 253.936 92.3811 259.507" stroke="#8E64CF"/>
<path d="M262.5 100.061C263.278 129.766 257.564 194.066 228.476 213.626C199.389 233.187 122.028 249.241 86.9832 254.823" stroke="#886ACA"/>
<path d="M256.764 95.0634C257.552 124.767 251.857 189.069 222.775 208.64C193.694 228.211 116.338 244.292 81.2944 249.887" stroke="#8171C5"/>
<path d="M250.733 89.8095C251.532 119.513 245.858 183.816 216.783 203.397C187.707 222.979 110.356 239.09 75.3141 244.697" stroke="#7B78C0"/>
<path d="M244.409 84.2985C245.218 114.002 239.567 178.307 210.498 197.9C181.429 217.493 104.081 233.633 69.0413 239.255" stroke="#737FBA"/>
<path d="M237.792 78.5325C238.61 108.235 232.983 172.541 203.921 192.146C174.858 211.751 97.5166 227.924 62.4779 233.559" stroke="#6C86B4"/>
<path d="M230.879 72.5092C231.709 102.212 226.107 166.52 197.052 186.137C167.996 205.754 90.6595 221.96 55.6219 227.61" stroke="#648EAE"/>
<path d="M223.673 66.2309C224.515 95.9322 218.937 160.243 189.89 179.872C160.843 199.503 83.5099 215.742 48.4751 221.409" stroke="#5C97A7"/>
<path d="M216.172 59.6953C217.027 89.3966 211.476 153.709 182.437 173.353C153.396 192.996 76.07 209.272 41.0368 214.954" stroke="#539FA0"/>
<path d="M208.378 52.9051C209.246 82.6045 203.723 146.919 174.69 166.577C145.658 186.234 68.3377 202.547 33.307 208.247" stroke="#4AA899"/>
<path d="M200.289 45.8573C201.17 75.557 195.676 139.873 166.652 159.545C137.628 179.217 60.3138 195.569 25.2844 201.286" stroke="#41B192"/>
</g>
<defs>
<filter id="filter0_f_9_2" x="134.072" y="142.141" width="172.619" height="153.337" filterUnits="userSpaceOnUse" color-interpolation-filters="sRGB">
<feFlood flood-opacity="0" result="BackgroundImageFix"/>
<feBlend mode="normal" in="SourceGraphic" in2="BackgroundImageFix" result="shape"/>
<feGaussianBlur stdDeviation="0.5" result="effect1_foregroundBlur_9_2"/>
</filter>
<filter id="filter1_f_9_2" x="25.1625" y="45.5931" width="171.75" height="154.529" filterUnits="userSpaceOnUse" color-interpolation-filters="sRGB">
<feFlood flood-opacity="0" result="BackgroundImageFix"/>
<feBlend mode="normal" in="SourceGraphic" in2="BackgroundImageFix" result="shape"/>
<feGaussianBlur stdDeviation="0.5" result="effect1_foregroundBlur_9_2"/>
</filter>
<clipPath id="clip0_9_2">
<rect width="272.914" height="265.213" fill="white" transform="matrix(-0.942723 -0.333575 0.316856 -0.948474 257.966 342.585)"/>
</clipPath>
</defs>
</svg>
