<svg width="296" height="292" viewBox="0 0 296 292" fill="none" xmlns="http://www.w3.org/2000/svg">
<g clip-path="url(#clip0_9_27)">
<g filter="url(#filter0_f_9_27)">
<path d="M23.9635 205.269C16.8002 177.295 8.22373 115.015 31.2253 89.6795C54.2269 64.3429 123.194 31.0515 154.802 17.5728" stroke="#BA38F2"/>
</g>
<g filter="url(#filter1_f_9_27)">
<path d="M152.725 272.584C145.389 244.664 136.427 182.449 159.273 156.948C182.121 131.445 250.889 97.6553 282.417 83.948" stroke="#37BB8A"/>
</g>
<path d="M27.03 211.906C19.5622 183.2 10.594 119.293 34.4639 93.3125C58.3339 67.3316 129.945 33.219 162.766 19.4103" stroke="#B73BF0"/>
<path d="M30.3035 213.599C22.8311 184.894 13.8531 120.989 37.7192 95.0037C61.5852 69.0187 133.191 34.8936 166.011 21.0792" stroke="#B43EED"/>
<path d="M33.9211 215.469C26.4439 186.766 17.4549 122.863 41.3167 96.8729C65.1784 70.8833 136.778 36.7443 169.596 22.9236" stroke="#B042EA"/>
<path d="M37.8828 217.518C30.4004 188.816 21.3996 124.914 45.2565 98.9199C69.1136 72.9253 140.708 38.7711 173.522 24.9433" stroke="#AD45E7"/>
<path d="M42.1891 219.744C34.7008 191.044 25.6871 127.145 49.539 101.145C73.3908 75.1447 144.979 40.9741 177.791 27.1388" stroke="#A84AE4"/>
<path d="M46.8394 222.149C39.3449 193.45 30.3172 129.554 54.1634 103.548C78.0098 77.5414 149.59 43.353 182.399 29.5096" stroke="#A44EE0"/>
<path d="M51.8341 224.731C44.3328 196.036 35.2903 132.14 59.1305 106.128C82.9709 80.1157 154.543 45.9082 187.349 32.056" stroke="#9F53DC"/>
<path d="M57.173 227.492C49.6645 198.797 40.6059 134.906 64.4398 108.887C88.2737 82.8673 159.838 48.6394 192.641 34.7779" stroke="#9A58D8"/>
<path d="M62.8562 230.43C55.3401 201.738 46.2644 137.849 70.0915 111.823C93.9186 85.7964 165.474 51.5468 198.273 37.6752" stroke="#945ED4"/>
<path d="M68.8837 233.547C61.3594 204.857 52.2656 140.971 76.0856 114.937C99.9054 88.9029 171.452 54.6302 204.247 40.7481" stroke="#8E64CF"/>
<path d="M75.2552 236.841C67.7223 208.155 58.6095 144.271 82.4218 118.229C106.234 92.1868 177.77 57.8897 210.562 43.9964" stroke="#886ACA"/>
<path d="M81.9713 240.313C74.4293 211.63 65.2964 147.75 89.1006 121.699C112.905 95.6482 184.431 61.3253 217.218 47.4204" stroke="#8171C5"/>
<path d="M89.0314 243.963C81.4798 215.283 72.3258 151.406 96.1215 125.347C119.917 99.287 191.432 64.9372 224.215 51.0197" stroke="#7B78C0"/>
<path d="M96.4358 247.792C88.8744 219.114 79.6982 155.241 103.485 129.172C127.272 103.103 198.776 68.7251 231.554 54.7947" stroke="#737FBA"/>
<path d="M104.184 251.798C96.6128 223.123 87.4133 159.255 111.19 133.176C134.969 107.097 206.46 72.6891 239.234 58.7452" stroke="#6C86B4"/>
<path d="M112.277 255.983C104.695 227.311 95.4711 163.447 119.239 137.357C143.007 111.268 214.485 76.8292 247.255 62.871" stroke="#648EAE"/>
<path d="M120.715 260.344C113.12 231.677 103.872 167.816 127.63 141.716C151.387 115.616 222.854 81.1455 255.617 67.1725" stroke="#5C97A7"/>
<path d="M129.497 264.885C121.891 236.22 112.615 172.364 136.362 146.253C160.109 120.142 231.562 85.6378 264.319 71.6494" stroke="#539FA0"/>
<path d="M138.622 269.602C131.004 240.943 121.701 177.091 145.438 150.968C169.174 124.845 240.612 90.3062 273.363 76.3018" stroke="#4AA899"/>
<path d="M148.092 274.499C140.461 245.842 131.13 181.996 154.855 155.861C178.58 129.726 250.003 95.1507 282.75 81.1298" stroke="#41B192"/>
</g>
<defs>
<filter id="filter0_f_9_27" x="14.7775" y="16.1124" width="141.222" height="190.278" filterUnits="userSpaceOnUse" color-interpolation-filters="sRGB">
<feFlood flood-opacity="0" result="BackgroundImageFix"/>
<feBlend mode="normal" in="SourceGraphic" in2="BackgroundImageFix" result="shape"/>
<feGaussianBlur stdDeviation="0.5" result="effect1_foregroundBlur_9_27"/>
</filter>
<filter id="filter1_f_9_27" x="143.163" y="82.489" width="140.455" height="191.219" filterUnits="userSpaceOnUse" color-interpolation-filters="sRGB">
<feFlood flood-opacity="0" result="BackgroundImageFix"/>
<feBlend mode="normal" in="SourceGraphic" in2="BackgroundImageFix" result="shape"/>
<feGaussianBlur stdDeviation="0.5" result="effect1_foregroundBlur_9_27"/>
</filter>
<clipPath id="clip0_9_27">
<rect width="272.136" height="265.934" fill="white" transform="matrix(0.995309 0.096747 -0.0913873 0.995815 24.3387 0)"/>
</clipPath>
</defs>
</svg>
