<svg width="771" height="269" viewBox="0 0 771 269" fill="none" xmlns="http://www.w3.org/2000/svg">
<path d="M-6.5 264.5C210.5 116.5 153 113.5 356 146.5C518.4 172.9 700 62.5 770.5 4" stroke="#B73BF0"/>
<path d="M-15 100C194 97 150 350 375 240C555 152 556.333 44 534.5 1" stroke="#37BB8A"/>
<path d="M-7.19019 251.143C209.16 114.917 152.756 132.703 357.543 154.092C521.372 171.203 688.335 60.9979 751.338 3.75647" stroke="#AD45E7"/>
<path d="M-7.85181 238.339C207.876 113.399 152.523 151.112 359.022 161.37C524.221 169.576 677.152 59.5579 732.968 3.52295" stroke="#A34FE0"/>
<path d="M-8.48486 226.087C206.647 111.946 152.299 168.727 360.437 168.334C526.947 168.019 666.451 58.1799 715.39 3.29944" stroke="#9959D8"/>
<path d="M-9.08942 214.387C205.473 110.56 152.086 185.547 361.788 174.984C529.55 166.533 656.233 56.8641 698.605 3.08606" stroke="#9062D1"/>
<path d="M-9.66547 203.239C204.355 109.238 151.883 201.574 363.076 181.32C532.03 165.117 646.498 55.6105 682.612 2.88281" stroke="#886BCA"/>
<path d="M-10.2129 192.644C203.293 107.982 151.69 216.806 364.299 187.342C534.387 163.771 637.245 54.419 667.412 2.68958" stroke="#7F73C3"/>
<path d="M-10.7318 182.602C202.285 106.792 151.506 231.245 365.459 193.05C536.622 162.495 628.474 53.2896 653.004 2.50647" stroke="#787BBD"/>
<path d="M-11.2222 173.111C201.333 105.667 151.333 244.889 366.556 198.444C538.733 161.289 620.185 52.2223 639.389 2.33337" stroke="#7082B7"/>
<path d="M-11.6841 164.173C200.437 104.607 151.17 257.739 367.588 203.525C540.722 160.153 612.379 51.217 626.566 2.17029" stroke="#6989B2"/>
<path d="M-12.1174 155.787C199.596 103.613 151.017 269.795 368.556 208.291C542.588 159.088 605.055 50.274 614.535 2.01746" stroke="#6390AD"/>
<path d="M-12.5222 147.954C198.81 102.684 150.875 281.057 369.461 212.743C544.331 158.093 598.214 49.393 603.297 1.87451" stroke="#5D96A8"/>
<path d="M-12.8984 140.673C198.08 101.821 150.742 291.525 370.302 216.882C545.951 157.168 591.855 48.5741 592.852 1.7417" stroke="#579BA3"/>
<path d="M-13.246 133.944C197.405 101.024 150.619 301.198 371.079 220.706C547.448 156.313 585.979 47.8174 583.198 1.61902" stroke="#52A19F"/>
<path d="M-13.5652 127.768C196.785 100.292 150.506 310.078 371.793 224.217C548.822 155.528 580.585 47.1229 574.338 1.50647" stroke="#4DA59B"/>
<path d="M-13.8558 122.144C196.221 99.625 150.404 318.163 372.442 227.413C550.073 154.813 575.673 46.4903 566.269 1.40381" stroke="#49AA98"/>
<path d="M-14.1178 117.073C195.712 99.0239 150.311 325.455 373.028 230.296C551.201 154.169 571.244 45.9201 558.993 1.3114" stroke="#45AE95"/>
<path d="M-14.3513 112.553C195.259 98.488 150.229 331.952 373.55 232.865C552.207 153.595 567.297 45.4117 552.51 1.22888" stroke="#41B192"/>
<path d="M-14.5563 108.587C194.861 98.0179 150.157 337.655 374.008 235.12C553.09 153.091 563.832 44.9657 546.819 1.15662" stroke="#3EB48F"/>
<path d="M-14.7327 105.172C194.519 97.6131 150.094 342.564 374.403 237.06C553.849 152.657 560.85 44.5817 541.92 1.09436" stroke="#3BB78D"/>
<path d="M-14.8807 102.31C194.232 97.2738 150.042 346.679 374.733 238.687C554.486 152.293 558.351 44.2598 537.814 1.04211" stroke="#39B98C"/>
</svg>
