<svg width="271" height="81" viewBox="0 0 271 81" fill="none" xmlns="http://www.w3.org/2000/svg">
<path fill-rule="evenodd" clip-rule="evenodd" d="M22 10C15.3726 10 10 15.3726 10 22V42.0102C10 48.6376 15.3726 54.0102 22 54.0102H48.8571L52.7133 70.1936L66.1999 53.6294C71.3701 52.2935 75.1892 47.5978 75.1892 42.0102V22C75.1892 15.3726 69.8166 10 63.1892 10H22Z" fill="#98077B"/>
<path d="M33.4076 38.4305L23.4476 35.1665V31.5185L33.4076 28.3985V32.0225L27.5036 33.2945L33.4076 34.8065V38.4305ZM36.0806 43.4945L42.8246 23.2865H47.0726L40.3286 43.4945H36.0806ZM49.7456 38.4305V34.8065L55.6496 33.3185L49.7456 32.0225V28.3985L59.7056 31.5185V35.1665L49.7456 38.4305Z" fill="white"/>
<path d="M105.205 50.7888C103.819 50.7888 102.592 50.6288 101.525 50.3088C100.48 49.9888 99.5839 49.4021 98.8372 48.5488C98.1119 47.6955 97.5572 46.4795 97.1732 44.9008C96.8105 43.3008 96.6292 41.2315 96.6292 38.6928C96.6292 36.2395 96.8212 34.2341 97.2052 32.6768C97.6105 31.0981 98.1865 29.8821 98.9332 29.0288C99.6799 28.1541 100.587 27.5461 101.653 27.2048C102.72 26.8635 103.925 26.6928 105.269 26.6928C106.336 26.6928 107.328 26.7568 108.245 26.8848C109.184 26.9915 110.027 27.1301 110.773 27.3008C111.52 27.4501 112.149 27.6208 112.661 27.8128V31.4928C112.277 31.4075 111.755 31.3221 111.093 31.2368C110.453 31.1515 109.717 31.0875 108.885 31.0448C108.053 30.9808 107.179 30.9488 106.261 30.9488C105.365 30.9488 104.597 31.0555 103.957 31.2688C103.339 31.4608 102.837 31.8341 102.453 32.3888C102.091 32.9221 101.813 33.7008 101.621 34.7248C101.451 35.7488 101.365 37.0821 101.365 38.7248C101.365 40.3035 101.44 41.6048 101.589 42.6288C101.76 43.6528 102.027 44.4528 102.389 45.0288C102.752 45.5835 103.243 45.9781 103.861 46.2128C104.501 46.4261 105.301 46.5328 106.261 46.5328C107.883 46.5328 109.195 46.5008 110.197 46.4368C111.221 46.3728 112.043 46.2981 112.661 46.2128V49.8608C112.085 50.0528 111.424 50.2235 110.677 50.3728C109.931 50.5008 109.109 50.5968 108.213 50.6608C107.317 50.7461 106.315 50.7888 105.205 50.7888ZM124.827 50.7888C123.205 50.7888 121.787 50.6395 120.571 50.3408C119.355 50.0208 118.331 49.4448 117.499 48.6128C116.688 47.7595 116.08 46.5435 115.675 44.9648C115.269 43.3861 115.067 41.3275 115.067 38.7888C115.067 36.2501 115.269 34.1915 115.675 32.6128C116.101 31.0128 116.72 29.7861 117.531 28.9328C118.341 28.0795 119.355 27.4928 120.571 27.1728C121.787 26.8528 123.205 26.6928 124.827 26.6928C126.448 26.6928 127.867 26.8528 129.083 27.1728C130.299 27.4928 131.312 28.0795 132.123 28.9328C132.933 29.7861 133.541 31.0128 133.947 32.6128C134.352 34.1915 134.555 36.2501 134.555 38.7888C134.555 41.3275 134.352 43.3861 133.947 44.9648C133.541 46.5435 132.933 47.7595 132.123 48.6128C131.312 49.4448 130.299 50.0208 129.083 50.3408C127.867 50.6395 126.448 50.7888 124.827 50.7888ZM124.827 46.5328C125.787 46.5328 126.587 46.4261 127.227 46.2128C127.867 45.9995 128.368 45.6261 128.731 45.0928C129.115 44.5381 129.392 43.7595 129.563 42.7568C129.733 41.7328 129.819 40.4101 129.819 38.7888C129.819 37.0821 129.733 35.7168 129.563 34.6928C129.392 33.6688 129.115 32.8901 128.731 32.3568C128.368 31.8021 127.867 31.4288 127.227 31.2368C126.587 31.0448 125.787 30.9488 124.827 30.9488C123.909 30.9488 123.131 31.0448 122.491 31.2368C121.851 31.4288 121.328 31.8021 120.923 32.3568C120.539 32.8901 120.251 33.6688 120.059 34.6928C119.888 35.7168 119.803 37.0821 119.803 38.7888C119.803 40.4101 119.877 41.7328 120.027 42.7568C120.197 43.7595 120.475 44.5381 120.859 45.0928C121.243 45.6261 121.755 45.9995 122.395 46.2128C123.056 46.4261 123.867 46.5328 124.827 46.5328ZM138.21 50.5968V26.9168H142.018L151.938 42.5328V26.9168H156.674V50.5968H152.866L142.978 34.9808V50.5968H138.21ZM160.741 50.5968V26.9168H164.549L174.469 42.5328V26.9168H179.205V50.5968H175.397L165.509 34.9808V50.5968H160.741ZM188.872 50.7568C188.36 50.7568 187.774 50.7035 187.112 50.5968C186.451 50.5115 185.811 50.2981 185.192 49.9568C184.595 49.6155 184.094 49.1035 183.688 48.4208C183.304 47.7168 183.112 46.7568 183.112 45.5408V32.3248C183.112 31.2795 183.272 30.4048 183.592 29.7008C183.912 28.9968 184.339 28.4421 184.872 28.0368C185.406 27.6315 185.992 27.3435 186.632 27.1728C187.272 27.0021 187.902 26.9168 188.52 26.9168C190.12 26.9168 191.528 26.9381 192.744 26.9808C193.982 27.0235 195.091 27.0768 196.072 27.1408C197.054 27.1835 197.95 27.2475 198.76 27.3328V31.3008H189.928C189.267 31.3008 188.755 31.4608 188.392 31.7808C188.03 32.1008 187.848 32.5915 187.848 33.2528V36.6768L197.224 36.9328V40.6768L187.848 40.9328V44.1968C187.848 44.7515 187.934 45.1888 188.104 45.5088C188.296 45.8075 188.542 46.0208 188.84 46.1488C189.16 46.2555 189.491 46.3088 189.832 46.3088H198.76V50.2768C197.822 50.3835 196.776 50.4688 195.624 50.5328C194.494 50.5968 193.342 50.6501 192.168 50.6928C191.016 50.7355 189.918 50.7568 188.872 50.7568ZM202.206 50.5968V26.9168H206.942V36.7088H210.078L214.942 26.9168H219.998L213.854 38.8208L220.19 50.5968H215.134L210.078 40.9968H206.942V50.5968H202.206ZM227.791 50.5968V31.1728H221.295V26.9168H239.055V31.1728H232.527V50.5968H227.791ZM238.514 50.5968L245.938 26.9168H251.922L259.346 50.5968H254.418L252.914 45.6368H244.85L243.378 50.5968H238.514ZM245.97 41.3808H251.794L248.882 30.9808L245.97 41.3808Z" fill="#020873"/>
</svg>
