<?xml version="1.0" standalone="no"?>
<!DOCTYPE svg PUBLIC "-//W3C//DTD SVG 1.0//EN" "http://www.w3.org/TR/2001/REC-SVG-20010904/DTD/svg10.dtd">
<svg xmlns="http://www.w3.org/2000/svg" xmlns:xlink="http://www.w3.org/1999/xlink" id="body_1" width="609" height="575">

<defs>
    <clipPath  id="1">

    <path id=""  clip-rule="evenodd" transform="matrix(1 0 0 1 0 0)"  d="M0 431L0 -0.25L0 -0.25L457.5 -0.25L457.5 -0.25L457.5 431L457.5 431L0 431z" />    </clipPath>
</defs>

<g transform="matrix(1.3333 0 0 1.3333 0 0)">
	<g clip-path="url(#1)" >
    <path id=""  transform="matrix(1 0 0 -1 0 431)"  d="M0 363.75C 0 363.75 11.584632 363.75 25.875 363.75L25.875 363.75L25.875 363.75L25.875 363.75L343.875 363.75L343.875 363.75L343.875 363.75C 358.16537 363.75 369.75 363.75 369.75 363.75L369.75 363.75L343.875 363.75C 358.16537 363.75 369.75 363.75 369.75 363.75L369.75 363.75L369.75 363.75L369.75 363.75L369.75 53.25L369.75 53.25L369.75 53.25C 369.75 53.25 358.16537 53.25 343.875 53.25L343.875 53.25L369.75 53.25C 369.75 53.25 358.16537 53.25 343.875 53.25L343.875 53.25L343.875 53.25L343.875 53.25L25.875 53.25L25.875 53.25L25.875 53.25C 11.584632 53.25 0 53.25 0 53.25L0 53.25L25.875 53.25C 11.584632 53.25 0 53.25 0 53.25L0 53.25L0 53.25L0 53.25L0 363.75L0 363.75L0 363.75C 0 363.75 11.584632 363.75 25.875 363.75z" stroke="#FFFFFF" stroke-width="0.75" fill="none" stroke-opacity="0" />
    <path id=""  transform="matrix(1 0 0 -1 0 431)"  d="M0 363.75C 0 363.75 11.584632 363.75 25.875 363.75L25.875 363.75L25.875 363.75L25.875 363.75L343.875 363.75L343.875 363.75L343.875 363.75C 358.16537 363.75 369.75 363.75 369.75 363.75L369.75 363.75L343.875 363.75C 358.16537 363.75 369.75 363.75 369.75 363.75L369.75 363.75L369.75 363.75L369.75 363.75L369.75 53.25L369.75 53.25L369.75 53.25C 369.75 53.25 358.16537 53.25 343.875 53.25L343.875 53.25L369.75 53.25C 369.75 53.25 358.16537 53.25 343.875 53.25L343.875 53.25L343.875 53.25L343.875 53.25L25.875 53.25L25.875 53.25L25.875 53.25C 11.584632 53.25 0 53.25 0 53.25L0 53.25L25.875 53.25C 11.584632 53.25 0 53.25 0 53.25L0 53.25L0 53.25L0 53.25L0 363.75L0 363.75L0 363.75C 0 363.75 11.584632 363.75 25.875 363.75z" stroke="#FFFFFF" stroke-width="0.75" fill="none" stroke-opacity="0" />
    <path id=""  transform="matrix(1 0 0 -1 0 431)"  d="M457.5 215.625C 457.5 96.53848 347.69775 0 212.25 0L212.25 0L212.25 0C 76.802246 0 227.25 74.03848 227.25 193.125L227.25 193.125L227.25 193.125C 227.25 312.2115 76.802246 431.25 212.25 431.25L212.25 431.25L212.25 431.25C 347.69775 431.25 457.5 334.7115 457.5 215.625z" stroke="#FFFFFF" stroke-width="1" fill="#C525EA" fill-rule="nonzero" fill-opacity="0.11764706" />
	</g>
</g>
</svg>