<svg width="62" height="62" viewBox="0 0 62 62" fill="none" xmlns="http://www.w3.org/2000/svg">
<rect width="62" height="62" rx="31" fill="#C525EA" fill-opacity="0.11"/>
<path d="M32.2575 41.8566C32.4253 42.06 32.5584 42.3016 32.6493 42.5677C32.7401 42.8338 32.7869 43.119 32.7869 43.4071C32.7869 43.6952 32.7401 43.9805 32.6493 44.2466C32.5584 44.5127 32.4253 44.7543 32.2575 44.9577L31.3666 46.0412C29.6785 48.0945 27.3889 49.248 25.0016 49.248C22.6142 49.248 20.3246 48.0945 18.6365 46.0412C16.9484 43.988 16 41.2032 16 38.2995C16 35.3957 16.9484 32.6109 18.6365 30.5577L22.254 26.1596C23.876 24.1819 26.0583 23.0334 28.3539 22.9493C30.6496 22.8652 32.8848 23.8518 34.6017 25.7072C34.7789 25.8988 34.9234 26.1311 35.0269 26.3906C35.1304 26.6502 35.1908 26.932 35.2047 27.22C35.2186 27.5079 35.1858 27.7964 35.1081 28.0689C35.0303 28.3415 34.9092 28.5927 34.7516 28.8083C34.5941 29.0239 34.4032 29.1996 34.1897 29.3255C33.9763 29.4513 33.7447 29.5248 33.5079 29.5418C33.2711 29.5587 33.034 29.5188 32.8099 29.4242C32.5858 29.3297 32.3793 29.1824 32.202 28.9907C31.1724 27.8786 29.8324 27.2869 28.456 27.3367C27.0797 27.3866 25.7709 28.0742 24.7976 29.2589L21.1831 33.6515C20.1704 34.8832 19.6015 36.5538 19.6015 38.2958C19.6015 40.0378 20.1704 41.7084 21.1831 42.9401C22.1958 44.1719 23.5694 44.8639 25.0016 44.8639C26.4338 44.8639 27.8073 44.1719 28.82 42.9401L29.7109 41.8566C29.878 41.6531 30.0765 41.4916 30.295 41.3814C30.5135 41.2713 30.7477 41.2146 30.9842 41.2146C31.2207 41.2146 31.4549 41.2713 31.6734 41.3814C31.8919 41.4916 32.0904 41.6531 32.2575 41.8566ZM43.3679 15.9534C41.6784 13.9033 39.3893 12.752 37.0028 12.752C34.6163 12.752 32.3272 13.9033 30.6377 15.9534L29.7469 17.0369C29.4088 17.4482 29.2188 18.0059 29.2188 18.5875C29.2188 19.169 29.4088 19.7268 29.7469 20.138C30.085 20.5492 30.5435 20.7803 31.0217 20.7803C31.4998 20.7803 31.9584 20.5492 32.2965 20.138L33.1874 19.0545C34.2001 17.8227 35.5736 17.1307 37.0058 17.1307C38.438 17.1307 39.8116 17.8227 40.8243 19.0545C41.837 20.2862 42.4059 21.9568 42.4059 23.6988C42.4059 25.4408 41.837 27.1114 40.8243 28.3431L37.2083 32.743C36.2341 33.9272 34.9247 34.6138 33.5479 34.6623C32.1712 34.7108 30.8313 34.1175 29.8024 33.0039C29.6251 32.8122 29.4186 32.6649 29.1945 32.5704C28.9704 32.4758 28.7332 32.4359 28.4965 32.4528C28.2597 32.4698 28.028 32.5433 27.8146 32.6691C27.6012 32.795 27.4103 32.9707 27.2527 33.1863C27.0952 33.4019 26.9741 33.6531 26.8963 33.9257C26.8186 34.1982 26.7858 34.4867 26.7997 34.7746C26.8136 35.0626 26.874 35.3444 26.9775 35.604C27.081 35.8635 27.2255 36.0958 27.4027 36.2874C29.1184 38.1423 31.3521 39.1296 33.6467 39.0472C35.9413 38.9648 38.1232 37.819 39.7459 35.8441L43.3634 31.446C45.0509 29.3916 45.9992 26.6067 46 23.7027C46.0008 20.7986 45.0542 18.0129 43.3679 15.957V15.9534Z" fill="white"/>
</svg>
