<svg width="35" height="35" viewBox="0 0 35 35" fill="none" xmlns="http://www.w3.org/2000/svg">
<g clip-path="url(#clip0_316_205)">
<path d="M21.3209 3.88207C21.5977 3.95952 21.8565 4.09076 22.0826 4.26829C22.3087 4.44582 22.4975 4.66616 22.6384 4.91672C22.7792 5.16727 22.8693 5.44313 22.9035 5.72853C22.9377 6.01392 22.9153 6.30326 22.8376 6.57999L16.3757 29.6027C16.2191 30.1614 15.8469 30.635 15.3411 30.9193C14.8352 31.2036 14.2372 31.2753 13.6785 31.1186C13.1198 30.962 12.6462 30.5898 12.3619 30.084C12.0776 29.5782 12.0059 28.9801 12.1626 28.4214L18.6244 5.39582C18.702 5.11915 18.8334 4.86048 19.011 4.63458C19.1886 4.40869 19.409 4.21999 19.6595 4.07929C19.91 3.93858 20.1858 3.84861 20.4712 3.81452C20.7565 3.78043 21.0457 3.80289 21.3224 3.88062L21.3209 3.88207ZM11.0251 9.76645C11.4347 10.1766 11.6648 10.7326 11.6648 11.3123C11.6648 11.892 11.4347 12.448 11.0251 12.8581L6.38757 17.5L11.028 22.1404C11.4382 22.5508 11.6685 23.1073 11.6684 23.6875C11.6682 24.2677 11.4376 24.8241 11.0273 25.2343C10.6169 25.6444 10.0604 25.8748 9.48018 25.8747C8.89997 25.8745 8.34358 25.6439 7.93341 25.2335L1.7457 19.0458C1.33605 18.6357 1.10596 18.0797 1.10596 17.5C1.10596 16.9203 1.33605 16.3643 1.7457 15.9542L7.93195 9.76645C8.1351 9.56317 8.37631 9.40192 8.6418 9.2919C8.90729 9.18188 9.19186 9.12525 9.47924 9.12525C9.76663 9.12525 10.0512 9.18188 10.3167 9.2919C10.5822 9.40192 10.8219 9.56317 11.0251 9.76645ZM23.9751 12.8581C23.7602 12.6579 23.5878 12.4163 23.4682 12.148C23.3487 11.8797 23.2844 11.59 23.2792 11.2963C23.274 11.0026 23.328 10.7108 23.438 10.4385C23.5481 10.1661 23.7118 9.91864 23.9195 9.71092C24.1273 9.5032 24.3747 9.33944 24.6471 9.22942C24.9195 9.1194 25.2112 9.06537 25.5049 9.07056C25.7986 9.07574 26.0883 9.14003 26.3566 9.25959C26.625 9.37915 26.8665 9.55153 27.0667 9.76645L33.2544 15.9527C33.6645 16.3629 33.8949 16.9192 33.8949 17.4993C33.8949 18.0793 33.6645 18.6356 33.2544 19.0458L27.0682 25.2335C26.8651 25.4367 26.624 25.5979 26.3586 25.7079C26.0932 25.8179 25.8087 25.8746 25.5214 25.8747C25.2341 25.8747 24.9496 25.8182 24.6842 25.7083C24.4187 25.5984 24.1775 25.4374 23.9743 25.2343C23.7712 25.0312 23.61 24.79 23.4999 24.5246C23.3899 24.2592 23.3333 23.9748 23.3332 23.6875C23.3332 23.4002 23.3897 23.1157 23.4996 22.8503C23.6094 22.5848 23.7705 22.3436 23.9736 22.1404L28.614 17.5L23.9751 12.8581Z" fill="white"/>
</g>
<defs>
<clipPath id="clip0_316_205">
<rect width="35" height="35" fill="white"/>
</clipPath>
</defs>
</svg>
