<svg width="261" height="65" viewBox="0 0 261 65" fill="none" xmlns="http://www.w3.org/2000/svg">
<rect x="0.621399" y="0.5" width="67.9878" height="64" fill="black" stroke="#37BB8A"/>
<path d="M24.56 47.306C22.376 47.306 20.81 46.85 19.862 45.938C18.926 45.014 18.446 43.484 18.422 41.348C18.374 37.508 18.35 33.65 18.35 29.774C18.35 25.886 18.374 22.028 18.422 18.2H22.31C22.274 20.756 22.25 23.384 22.238 26.084C22.226 28.772 22.226 31.466 22.238 34.166C22.25 36.854 22.268 39.476 22.292 42.032C22.292 42.716 22.484 43.232 22.868 43.58C23.252 43.916 23.816 44.084 24.56 44.084C25.316 44.084 25.874 43.916 26.234 43.58C26.606 43.232 26.792 42.716 26.792 42.032C26.816 39.476 26.834 36.854 26.846 34.166C26.858 31.466 26.858 28.772 26.846 26.084C26.846 23.384 26.828 20.756 26.792 18.2H30.68C30.74 22.028 30.77 25.886 30.77 29.774C30.77 33.65 30.74 37.508 30.68 41.348C30.656 43.484 30.17 45.014 29.222 45.938C28.286 46.85 26.732 47.306 24.56 47.306ZM40.9912 47V18.2H46.9312L48.8032 27.344L51.0172 43.544H51.8992L51.1792 29.468L50.8912 18.2H54.6712V47H48.4612L46.4812 37.118L44.7172 21.638H43.7812L44.4472 36.092L44.7532 47H40.9912Z" fill="#B73BF0"/>
<path d="M82.4185 47V21.656H78.2785V18.2H90.4645V21.656H86.3245V47H82.4185ZM99.5404 47V18.2H103.428V47H99.5404ZM116.647 47V21.656H112.507V18.2H124.693V21.656H120.553V47H116.647ZM133.769 47V18.2H137.657V43.544H144.083V47H133.769ZM153.414 47V18.2H163.692V21.656H157.302V30.692H163.332V34.148H157.302V43.544H163.692V47H153.414ZM173.376 47V18.2H179.334C181.506 18.2 183.078 18.674 184.05 19.622C185.022 20.558 185.526 22.112 185.562 24.284C185.598 26.264 185.622 28.142 185.634 29.918C185.646 31.694 185.646 33.476 185.634 35.264C185.622 37.04 185.598 38.918 185.562 40.898C185.526 43.07 185.022 44.63 184.05 45.578C183.078 46.526 181.5 47 179.316 47H173.376ZM177.264 43.544H179.316C180.108 43.544 180.696 43.364 181.08 43.004C181.464 42.632 181.662 42.074 181.674 41.33C181.71 39.866 181.734 38.408 181.746 36.956C181.758 35.492 181.764 34.034 181.764 32.582C181.764 31.13 181.758 29.678 181.746 28.226C181.734 26.762 181.71 25.298 181.674 23.834C181.662 23.102 181.464 22.556 181.08 22.196C180.696 21.836 180.114 21.656 179.334 21.656H177.264V43.544Z" fill="white"/>
</svg>
